<svg xmlns="http://www.w3.org/2000/svg" xmlns:xlink="http://www.w3.org/1999/xlink" viewBox="0 0 612 334"><defs><style>.cls-1{fill:none;}.cls-2{clip-path:url(#clip-path);}.cls-3{opacity:0.75;}.cls-4{clip-path:url(#clip-path-3);}.cls-5{fill:#604957;}.cls-6{opacity:0.5;}.cls-7{clip-path:url(#clip-path-4);}.cls-8{fill:#987c77;}.cls-9{clip-path:url(#clip-path-5);}.cls-10{clip-path:url(#clip-path-6);}.cls-11{opacity:0.85;}.cls-12{clip-path:url(#clip-path-7);}.cls-13{clip-path:url(#clip-path-8);}.cls-14{clip-path:url(#clip-path-9);}.cls-15{clip-path:url(#clip-path-10);}.cls-16{clip-path:url(#clip-path-11);}.cls-17{clip-path:url(#clip-path-12);}.cls-18{clip-path:url(#clip-path-13);}.cls-19{clip-path:url(#clip-path-14);}.cls-20{clip-path:url(#clip-path-15);}.cls-21{clip-path:url(#clip-path-16);}.cls-22{clip-path:url(#clip-path-17);}.cls-23{clip-path:url(#clip-path-18);}</style><clipPath id="clip-path"><rect class="cls-1" width="612" height="334"/></clipPath><clipPath id="clip-path-3"><rect class="cls-1" x="497" y="2" width="91.5" height="155"/></clipPath><clipPath id="clip-path-4"><rect class="cls-1" x="313.11" y="202.52" width="76.39" height="140.48"/></clipPath><clipPath id="clip-path-5"><rect class="cls-1" x="-9" y="124.5" width="331" height="76.39"/></clipPath><clipPath id="clip-path-6"><rect class="cls-1" x="309" y="133.02" width="91.5" height="81.5"/></clipPath><clipPath id="clip-path-7"><rect class="cls-1" x="471.5" y="164.75" width="149.5" height="76.39"/></clipPath><clipPath id="clip-path-8"><rect class="cls-1" x="397.48" y="231.5" width="76.39" height="111.5"/></clipPath><clipPath id="clip-path-9"><rect class="cls-1" x="402" y="153.75" width="81.5" height="91.5"/></clipPath><clipPath id="clip-path-10"><rect class="cls-1" x="34.5" y="39" width="91.5" height="81.5"/></clipPath><clipPath id="clip-path-11"><rect class="cls-1" x="225.11" y="215.61" width="91.5" height="81.5"/></clipPath><clipPath id="clip-path-12"><rect class="cls-1" x="-9" y="42" width="57.5" height="76.39"/></clipPath><clipPath id="clip-path-13"><rect class="cls-1" x="45.5" y="205.5" width="81.5" height="91.5"/></clipPath><clipPath id="clip-path-14"><rect class="cls-1" x="40.5" y="109.5" width="76.39" height="110"/></clipPath><clipPath id="clip-path-15"><rect class="cls-1" x="235.67" y="285.81" width="76.39" height="57.19"/></clipPath><clipPath id="clip-path-16"><rect class="cls-1" x="114.5" y="210.61" width="125.25" height="76.39"/></clipPath><clipPath id="clip-path-17"><rect class="cls-1" x="574.5" y="-1" width="46.5" height="76.39"/></clipPath><clipPath id="clip-path-18"><rect class="cls-1" x="575.5" y="79.61" width="45.5" height="76.39"/></clipPath></defs><g id="Layer_2" data-name="Layer 2"><g id="Layer_1-2" data-name="Layer 1"><g class="cls-2"><g class="cls-2"><g class="cls-3"><g class="cls-4"><path class="cls-5" d="M574.18,76.43A5.47,5.47,0,0,0,579.5,82v68a73.5,73.5,0,0,1,0-147V70.81a5.48,5.48,0,0,0-5.32,5.62"/></g></g><g class="cls-6"><g class="cls-7"><rect class="cls-8" x="320.11" y="211.52" width="68.39" height="122.48"/></g></g><g class="cls-6"><g class="cls-9"><rect class="cls-8" y="131.5" width="313" height="68.39"/></g></g><g class="cls-6"><g class="cls-10"><path class="cls-8" d="M391.5,207.52A73.5,73.5,0,0,0,318,134v67.82a5.47,5.47,0,0,1,5.32,5.61"/></g></g><g class="cls-11"><g class="cls-12"><rect class="cls-8" x="480.5" y="165.75" width="131.5" height="68.39"/></g></g><g class="cls-11"><g class="cls-13"><rect class="cls-8" x="404.48" y="240.5" width="68.39" height="93.5"/></g></g><g class="cls-11"><g class="cls-14"><path class="cls-8" d="M476.5,162.75a73.5,73.5,0,0,0-73.5,73.5h67.81a5.48,5.48,0,0,1,5.62-5.32"/></g></g><g class="cls-3"><g class="cls-15"><path class="cls-8" d="M117,113.5A73.5,73.5,0,0,0,43.5,40v67.81a5.48,5.48,0,0,1,5.32,5.62"/></g></g><g class="cls-3"><g class="cls-16"><path class="cls-8" d="M307.61,290.11a73.5,73.5,0,0,0-73.5-73.5v67.82a5.47,5.47,0,0,1,5.32,5.61"/></g></g><g class="cls-3"><g class="cls-17"><rect class="cls-8" y="43" width="39.5" height="68.39"/></g></g><g class="cls-3"><g class="cls-18"><path class="cls-8" d="M120,288a73.5,73.5,0,0,1-73.5-73.5h67.81a5.48,5.48,0,0,0,5.62,5.32"/></g></g><g class="cls-3"><g class="cls-19"><rect class="cls-8" x="47.5" y="118.5" width="68.39" height="92"/></g></g><g class="cls-3"><g class="cls-20"><rect class="cls-8" x="236.67" y="294.81" width="68.39" height="39.19"/></g></g><g class="cls-3"><g class="cls-21"><rect class="cls-8" x="123.5" y="217.61" width="107.25" height="68.39"/></g></g><g class="cls-3"><g class="cls-22"><rect class="cls-5" x="583.5" width="28.5" height="68.39"/></g></g><g class="cls-3"><g class="cls-23"><rect class="cls-5" x="584.5" y="80.61" width="27.5" height="68.39"/></g></g></g></g></g></g></svg>