<svg xmlns="http://www.w3.org/2000/svg" xmlns:xlink="http://www.w3.org/1999/xlink" viewBox="0 0 379.8 138.19"><defs><style>.cls-1,.cls-4{fill:none;}.cls-2{clip-path:url(#clip-path);}.cls-3{fill:#a78682;}.cls-4{stroke:#fff;stroke-width:1.23px;}.cls-5{fill:#b6a7af;}.cls-6{fill:#d2c2c0;}.cls-7{fill:#6f5061;}.cls-8{fill:#51344d;}.cls-9{fill:#7e687b;}.cls-10{font-size:12px;fill:#442f45;font-family:Kollektif;}</style><clipPath id="clip-path" transform="translate(0 -29.8)"><rect class="cls-1" x="62.93" y="13.02" width="180.71" height="180.71" transform="matrix(0.16, -0.99, 0.99, 0.16, 27.2, 238.6)"/></clipPath></defs><g id="Layer_2" data-name="Layer 2"><g id="Layer_1-2" data-name="Layer 1"><g class="cls-2"><path class="cls-3" d="M93.23,121.69A62.78,62.78,0,0,0,167,164.64l-13.74-61.27Z" transform="translate(0 -29.8)"/><path class="cls-4" d="M93.23,121.69A62.78,62.78,0,0,0,167,164.64l-13.74-61.27Z" transform="translate(0 -29.8)"/><path class="cls-5" d="M215.31,113.15A62.79,62.79,0,0,1,167,164.64l-13.74-61.26Z" transform="translate(0 -29.8)"/><path class="cls-4" d="M215.31,113.15A62.79,62.79,0,0,1,167,164.64l-13.74-61.26Z" transform="translate(0 -29.8)"/><path class="cls-6" d="M93.2,121.61a62.74,62.74,0,0,1,8.4-53.88l51.68,35.65Z" transform="translate(0 -29.8)"/><path class="cls-4" d="M93.2,121.61a62.74,62.74,0,0,1,8.4-53.88l51.68,35.65Z" transform="translate(0 -29.8)"/><path class="cls-7" d="M148.89,40.74A62.81,62.81,0,0,0,101.54,67.8l51.74,35.58Z" transform="translate(0 -29.8)"/><path class="cls-4" d="M148.89,40.74A62.81,62.81,0,0,0,101.54,67.8l51.74,35.58Z" transform="translate(0 -29.8)"/><path class="cls-8" d="M199.56,60.94a62.77,62.77,0,0,1,15.75,52.21l-62-9.78Z" transform="translate(0 -29.8)"/><path class="cls-4" d="M199.56,60.94a62.77,62.77,0,0,1,15.75,52.21l-62-9.78Z" transform="translate(0 -29.8)"/><path class="cls-9" d="M148.89,40.74a62.8,62.8,0,0,1,50.66,20.19l-46.27,42.45Z" transform="translate(0 -29.8)"/><path class="cls-4" d="M148.89,40.74a62.8,62.8,0,0,1,50.66,20.19l-46.27,42.45Z" transform="translate(0 -29.8)"/></g><text class="cls-10" transform="translate(182 14.11)">On-the-ground tool developer: 3</text><text class="cls-10" transform="translate(48.16 10.25)">Int’l activist: 3 </text><text class="cls-10" transform="translate(0 135.31)">Int’l tool developer: 5 </text><text class="cls-10" transform="translate(206 122.91)">Int’l human rights organization: 4</text><text class="cls-10" transform="translate(219 62.32)">Journalist/researcher: 3 </text><text class="cls-10" transform="translate(32.53 63.81)">Funder: 3</text></g></g></svg>