<svg xmlns="http://www.w3.org/2000/svg" viewBox="0 0 126.8 126.8"><defs><style>.cls-1{fill:#a78783;}.cls-2{fill:none;stroke:#fff;stroke-width:1.23px;}.cls-3{fill:#b7a7af;}.cls-4{fill:#d3c2c0;}.cls-5{fill:#6f5162;}.cls-6{fill:#52354e;}.cls-7{fill:#7f697c;}</style></defs><g id="Layer_2" data-name="Layer 2"><g id="Layer_1-2" data-name="Layer 1"><path class="cls-1" d="M3.34,81.71a62.79,62.79,0,0,0,73.8,43L63.4,63.4Z"/><path class="cls-2" d="M3.34,81.71a62.79,62.79,0,0,0,73.8,43L63.4,63.4Z"/><path class="cls-3" d="M125.42,73.18a62.79,62.79,0,0,1-48.28,51.49L63.4,63.4Z"/><path class="cls-2" d="M125.42,73.18a62.79,62.79,0,0,1-48.28,51.49L63.4,63.4Z"/><path class="cls-4" d="M3.32,81.64a62.81,62.81,0,0,1,8.39-53.89L63.4,63.4Z"/><path class="cls-2" d="M3.32,81.64a62.81,62.81,0,0,1,8.39-53.89L63.4,63.4Z"/><path class="cls-5" d="M59,.77A62.77,62.77,0,0,0,11.66,27.83L63.4,63.4Z"/><path class="cls-2" d="M59,.77A62.77,62.77,0,0,0,11.66,27.83L63.4,63.4Z"/><path class="cls-6" d="M109.67,21a62.79,62.79,0,0,1,15.75,52.21l-62-9.77Z"/><path class="cls-2" d="M109.67,21a62.79,62.79,0,0,1,15.75,52.21l-62-9.77Z"/><path class="cls-7" d="M59,.77A62.71,62.71,0,0,1,109.67,21L63.4,63.4Z"/><path class="cls-2" d="M59,.77A62.71,62.71,0,0,1,109.67,21L63.4,63.4Z"/></g></g></svg>