<svg xmlns="http://www.w3.org/2000/svg" xmlns:xlink="http://www.w3.org/1999/xlink" viewBox="0 0 612 342.5"><defs><style>.cls-1{fill:none;}.cls-2{clip-path:url(#clip-path);}.cls-3{opacity:0.5;}.cls-4{clip-path:url(#clip-path-3);}.cls-5{fill:#604957;}.cls-6{clip-path:url(#clip-path-4);}.cls-7{clip-path:url(#clip-path-5);}.cls-8{opacity:0.75;}.cls-9{clip-path:url(#clip-path-6);}.cls-10{clip-path:url(#clip-path-7);}.cls-11{fill:#987c77;}.cls-12{clip-path:url(#clip-path-8);}.cls-13{clip-path:url(#clip-path-9);}.cls-14{clip-path:url(#clip-path-10);}.cls-15{clip-path:url(#clip-path-11);}.cls-16{clip-path:url(#clip-path-12);}.cls-17{opacity:0.85;}.cls-18{clip-path:url(#clip-path-13);}.cls-19{clip-path:url(#clip-path-14);}.cls-20{clip-path:url(#clip-path-15);}.cls-21{clip-path:url(#clip-path-16);}.cls-22{clip-path:url(#clip-path-17);}.cls-23{clip-path:url(#clip-path-18);}.cls-24{clip-path:url(#clip-path-19);}.cls-25{clip-path:url(#clip-path-20);}.cls-26{clip-path:url(#clip-path-21);}.cls-27{clip-path:url(#clip-path-22);}.cls-28{clip-path:url(#clip-path-23);}.cls-29{clip-path:url(#clip-path-24);}.cls-30{clip-path:url(#clip-path-25);}.cls-31{clip-path:url(#clip-path-26);}</style><clipPath id="clip-path"><rect class="cls-1" width="612" height="342.5"/></clipPath><clipPath id="clip-path-3"><rect class="cls-1" x="589.5" y="11.61" width="31.5" height="76.39"/></clipPath><clipPath id="clip-path-4"><rect class="cls-1" x="589.5" y="-7" width="31.5" height="15"/></clipPath><clipPath id="clip-path-5"><rect class="cls-1" x="512" y="-7" width="91.5" height="93"/></clipPath><clipPath id="clip-path-6"><rect class="cls-1" x="23" y="186.5" width="91.5" height="155"/></clipPath><clipPath id="clip-path-7"><rect class="cls-1" x="222" y="-9" width="76.39" height="149.98"/></clipPath><clipPath id="clip-path-8"><rect class="cls-1" x="289.5" y="141.61" width="331.5" height="76.39"/></clipPath><clipPath id="clip-path-9"><rect class="cls-1" x="212" y="128.98" width="91.5" height="81.5"/></clipPath><clipPath id="clip-path-10"><rect class="cls-1" x="-9" y="22.61" width="314" height="76.39"/></clipPath><clipPath id="clip-path-11"><rect class="cls-1" x="305.64" y="-9" width="76.39" height="39"/></clipPath><clipPath id="clip-path-12"><rect class="cls-1" x="293" y="16.5" width="81.5" height="91.5"/></clipPath><clipPath id="clip-path-13"><rect class="cls-1" x="-9" y="103.36" width="150" height="76.39"/></clipPath><clipPath id="clip-path-14"><rect class="cls-1" x="139.64" y="17" width="76.39" height="95"/></clipPath><clipPath id="clip-path-15"><rect class="cls-1" x="129" y="98.25" width="81.5" height="91.5"/></clipPath><clipPath id="clip-path-16"><rect class="cls-1" x="126.52" y="-1" width="91.5" height="30.75"/></clipPath><clipPath id="clip-path-17"><rect class="cls-1" x="-9" y="-1" width="149.52" height="26.89"/></clipPath><clipPath id="clip-path-18"><rect class="cls-1" x="564" y="225.11" width="57" height="76.39"/></clipPath><clipPath id="clip-path-19"><rect class="cls-1" x="494.5" y="220" width="81.5" height="91.5"/></clipPath><clipPath id="clip-path-20"><rect class="cls-1" x="485.06" y="54.94" width="91.5" height="81.5"/></clipPath><clipPath id="clip-path-21"><rect class="cls-1" x="383.75" y="43" width="81.5" height="91.5"/></clipPath><clipPath id="clip-path-22"><rect class="cls-1" x="495.61" y="124" width="76.39" height="110"/></clipPath><clipPath id="clip-path-23"><rect class="cls-1" x="379.75" y="-9" width="76.39" height="66"/></clipPath><clipPath id="clip-path-24"><rect class="cls-1" x="454" y="57.5" width="44" height="76.39"/></clipPath><clipPath id="clip-path-25"><rect class="cls-1" x="-9" y="267.11" width="47" height="76.39"/></clipPath><clipPath id="clip-path-26"><rect class="cls-1" x="-9" y="187.5" width="46" height="76.39"/></clipPath></defs><g id="Layer_2" data-name="Layer 2"><g id="Layer_1-2" data-name="Layer 1"><g class="cls-2"><g class="cls-2"><g class="cls-3"><g class="cls-4"><rect class="cls-5" x="598.5" y="18.61" width="13.5" height="68.39"/></g></g><g class="cls-3"><g class="cls-6"><rect class="cls-5" x="598.5" width="13.5" height="7"/></g></g><g class="cls-3"><g class="cls-7"><path class="cls-5" d="M521.9,0a73.53,73.53,0,0,0,72.6,85V17.19a5.48,5.48,0,0,1-5.32-5.62A5.47,5.47,0,0,1,594.5,6V0Z"/></g></g><g class="cls-8"><g class="cls-9"><path class="cls-5" d="M37.32,267.07A5.47,5.47,0,0,0,32,261.46v-68a73.5,73.5,0,0,1,0,147V272.69a5.47,5.47,0,0,0,5.32-5.62"/></g></g><g class="cls-3"><g class="cls-10"><rect class="cls-11" x="223" width="68.39" height="131.98"/></g></g><g class="cls-3"><g class="cls-12"><rect class="cls-11" x="298.5" y="142.61" width="313.5" height="68.39"/></g></g><g class="cls-3"><g class="cls-13"><path class="cls-11" d="M221,136a73.5,73.5,0,0,0,73.5,73.5V141.66a5.47,5.47,0,0,1-5.32-5.61"/></g></g><g class="cls-8"><g class="cls-14"><rect class="cls-5" y="29.61" width="296" height="68.39"/></g></g><g class="cls-8"><g class="cls-15"><rect class="cls-5" x="306.64" width="68.39" height="21"/></g></g><g class="cls-8"><g class="cls-16"><path class="cls-5" d="M300,99a73.5,73.5,0,0,0,73.5-73.5H305.69a5.48,5.48,0,0,1-5.62,5.32"/></g></g><g class="cls-17"><g class="cls-18"><rect class="cls-11" y="110.36" width="132" height="68.39"/></g></g><g class="cls-17"><g class="cls-19"><rect class="cls-11" x="140.64" y="26" width="68.39" height="77"/></g></g><g class="cls-17"><g class="cls-20"><path class="cls-11" d="M136,180.75a73.5,73.5,0,0,0,73.5-73.5H141.69a5.48,5.48,0,0,1-5.62,5.32"/></g></g><g class="cls-17"><g class="cls-21"><path class="cls-11" d="M135.52,0V17.06a5.48,5.48,0,0,1,5.32,5.62l68.18.07A73.47,73.47,0,0,0,205.42,0Z"/></g></g><g class="cls-17"><g class="cls-22"><rect class="cls-11" width="131.52" height="18.89"/></g></g><g class="cls-8"><g class="cls-23"><rect class="cls-11" x="573" y="232.11" width="39" height="68.39"/></g></g><g class="cls-8"><g class="cls-24"><path class="cls-11" d="M569,302.5A73.5,73.5,0,0,1,495.5,229h67.81a5.48,5.48,0,0,0,5.62,5.32"/></g></g><g class="cls-8"><g class="cls-25"><path class="cls-11" d="M567.56,129.44a73.5,73.5,0,0,0-73.5-73.5v67.82a5.47,5.47,0,0,1,5.31,5.61"/></g></g><g class="cls-8"><g class="cls-26"><path class="cls-11" d="M458.25,125.5A73.5,73.5,0,0,1,384.75,52h67.81a5.48,5.48,0,0,0,5.62,5.32"/></g></g><g class="cls-8"><g class="cls-27"><rect class="cls-11" x="496.61" y="133" width="68.39" height="92"/></g></g><g class="cls-8"><g class="cls-28"><rect class="cls-11" x="386.75" width="68.39" height="48"/></g></g><g class="cls-8"><g class="cls-29"><rect class="cls-11" x="463" y="58.5" width="26" height="68.39"/></g></g><g class="cls-8"><g class="cls-30"><rect class="cls-5" y="274.11" width="29" height="68.39"/></g></g><g class="cls-8"><g class="cls-31"><rect class="cls-5" y="194.5" width="28" height="68.39"/></g></g></g></g></g></g></svg>