<svg xmlns="http://www.w3.org/2000/svg" xmlns:xlink="http://www.w3.org/1999/xlink" viewBox="0 0 403.85 198.19"><defs><style>.cls-1,.cls-6{fill:none;}.cls-2{fill:#d2c2c0;}.cls-3{font-size:18.19px;font-family:Kollektif;}.cls-3,.cls-4{fill:#442f45;}.cls-4{font-size:10.8px;font-family:Kollektif-Italic, Kollektif;font-style:italic;}.cls-5{clip-path:url(#clip-path);}.cls-6{stroke:#604957;stroke-linecap:round;stroke-width:1.52px;}</style><clipPath id="clip-path"><rect class="cls-1" width="404.1" height="202.15"/></clipPath></defs><g id="Layer_2" data-name="Layer 2"><g id="Layer_1-2" data-name="Layer 1"><rect class="cls-2" width="127.8" height="168.3"/><text class="cls-3" transform="translate(199.66 28.22)">Activists</text><text class="cls-4" transform="translate(37.06 14.14)">IN-REGION</text><text class="cls-3" transform="translate(26.5 56.94)">Activisits</text><text class="cls-3" transform="translate(19.33 145.14)">Developers</text><text class="cls-3" transform="translate(187.05 193.82)">Developers</text><text class="cls-3" transform="translate(169.02 137.66)">Researchers &amp; Journalists</text><text class="cls-3" transform="translate(204.15 90.94)">HROs</text><text class="cls-3" transform="translate(337.34 63.18)">Funders</text><g class="cls-5"><path class="cls-6" d="M323.72,120.25c9.34-30.28,20.22-47,20.22-47"/><polyline class="cls-6" points="345 79.39 343.94 73.26 337.9 74.77"/><path class="cls-6" d="M246.24,141.51c.41,22.56-4.42,35.29-4.42,35.29"/><polyline class="cls-6" points="239.47 171.04 241.82 176.81 247.4 174.04"/><path class="cls-6" d="M113.07,149.06c40,27.19,68.78,38.68,68.78,38.68"/><polyline class="cls-6" points="114.45 155.13 113.07 149.06 119.22 148.12"/><path class="cls-6" d="M63.35,122.28c-1.75-34.82-1.28-55.94-1.28-55.94"/><polyline class="cls-6" points="58.89 117.94 63.35 122.28 67.36 117.51"/><polyline class="cls-6" points="66.21 70.99 62.07 66.34 57.73 70.81"/><path class="cls-6" d="M232.41,68.19C230.51,47.84,231,36.42,231,36.42"/><polyline class="cls-6" points="227.76 64.05 232.41 68.19 236.21 63.26"/><polyline class="cls-6" points="235.06 41.17 231.03 36.42 226.59 40.78"/><path class="cls-6" d="M285.34,191C424.8,179.85,401.65,68.42,401.65,68.42"/><polyline class="cls-6" points="290.22 194.84 285.33 190.97 289.54 186.38"/><path class="cls-6" d="M106.27,46.55C157.75,32,190.48,24.27,190.48,24.27"/><polyline class="cls-6" points="109.5 41.23 106.27 46.55 111.81 49.39"/><polyline class="cls-6" points="187.01 29.44 190.48 24.27 185.07 21.19"/><path class="cls-6" d="M259.63,81.76c42.65-12.4,69.47-18.62,69.47-18.62"/><polyline class="cls-6" points="262.83 76.41 259.63 81.76 265.19 84.56"/><polyline class="cls-6" points="325.62 68.3 329.1 63.14 323.7 60.04"/><path class="cls-6" d="M198.5,83.76c-56.92-15.91-93.3-24.53-93.3-24.53"/><polyline class="cls-6" points="195.25 78.45 198.5 83.76 192.97 86.62"/><polyline class="cls-6" points="108.66 64.4 105.2 59.23 110.61 56.15"/><path class="cls-6" d="M162.08,127.17C109.34,95.34,91.4,61.94,91.4,61.94"/><polyline class="cls-6" points="155.98 128.44 162.08 127.17 160.37 121.18"/></g></g></g></svg>